<svg xmlns="http://www.w3.org/2000/svg" version="1.1" xmlns:xlink="http://www.w3.org/1999/xlink" xmlns:svgjs="http://svgjs.com/svgjs" width="91" height="91"><svg width="91" height="91" viewBox="0 0 91 91" fill="none" xmlns="http://www.w3.org/2000/svg">
<g clip-path="url(#clip0_309_200)">
<path d="M0 0V65.49C6.92 57.02 12.89 53.5 15.39 52.39C15.62 52.29 15.63 52.13 15.62 52.06C15.6 51.94 15.48 51.82 15.18 51.82C13.95 51.84 11.4 52.53 9.74 53.14C9.35 53.28 9.29 53.02 9.45 52.73C9.81 52.06 11.44 50.53 16.3 48.56C24.34 45.32 32.65 45.67 36.45 47.58C38.14 48.43 38.84 50.11 39.05 50.72C39.08 50.8 39.05 50.84 38.98 50.84C33.08 50.77 30.42 51.07 28.65 51.61C28.12 51.77 28.07 52.16 28.54 52.51C29.37 53.14 31.96 53.81 33 53.98C33.31 54.03 33.48 53.93 33.67 53.71C33.89 53.46 34.17 53.1 34.42 52.86C34.61 52.67 34.71 52.65 35.08 52.63C35.63 52.59 36.89 52.57 38 52.59C43.17 52.68 48.94 53.96 48.94 61.28C48.94 63.91 47.86 66.49 47.35 67.27C47.02 67.79 46.49 67.76 46.52 66.99C46.66 63.39 46.08 61.92 40.39 61.92C37.51 61.92 32.97 62.34 30.93 63.29C30.17 63.64 30.1 64.3 30.86 64.23C31.99 64.13 36.44 63.83 39.58 63.83C41.66 63.83 43.3 64.04 43.89 64.87C44.03 65.07 44.06 65.45 43.56 65.37C43.36 65.34 42.83 65.28 42.1 65.28C35.55 65.28 29.15 69.14 29.15 75.83C29.15 86.46 44.79 90.71 64.35 90.71C80.1 90.71 90.71 87.33 90.71 87.33V0H0Z" fill="#2F3E6A"/>
</g>
<defs>
<clipPath id="SvgjsClipPath1000">
<rect width="90.71" height="90.71" fill="white"/>
</clipPath>
</defs>
</svg><style>@media (prefers-color-scheme: light) { :root { filter: none; } }
</style><script xmlns=""/></svg>